<?xml version="1.0" encoding="UTF-8"?>
<svg id="OBJECTS" xmlns="http://www.w3.org/2000/svg" viewBox="0 0 407.42 407.42">
  <defs>
    <style>
      .cls-1 {
        fill: #383635;
        stroke-width: 0px;
      }
    </style>
  </defs>
  <path class="cls-1" d="M193.69,252.23c2.56,2.83,6.2,4.45,10.02,4.45s7.46-1.62,10.02-4.45l60.07-66.57c3.58-3.96,4.48-9.65,2.31-14.52-2.16-4.87-7-8.01-12.33-8.01h-28.36v-53.64c0-7.45-6.04-13.5-13.5-13.5h-36.44c-7.45,0-13.49,6.04-13.49,13.5v53.64h-28.36c-5.33,0-10.16,3.14-12.33,8.01-2.17,4.87-1.26,10.56,2.31,14.52l60.08,66.57Z"/>
  <path class="cls-1" d="M303.41,216.71c-6.28,0-11.37,5.09-11.37,11.37v38.22c0,4.91-3.98,8.88-8.88,8.88H124.26c-4.91,0-8.88-3.98-8.88-8.88v-38.22c0-6.28-5.09-11.37-11.37-11.37s-11.37,5.09-11.37,11.37v38.22c0,17.47,14.16,31.63,31.63,31.63h158.89c17.47,0,31.63-14.16,31.63-31.63v-38.22c0-6.28-5.09-11.37-11.37-11.37Z"/>
</svg>