<?xml version="1.0" encoding="UTF-8"?>
<svg id="Layer_1" data-name="Layer 1" xmlns="http://www.w3.org/2000/svg" viewBox="0 0 157.18 169.37">
  <defs>
    <style>
      .cls-1 {
        fill: #fe621e;
      }

      .cls-1, .cls-2, .cls-3, .cls-4, .cls-5, .cls-6, .cls-7, .cls-8 {
        stroke-width: 0px;
      }

      .cls-3 {
        fill: #ffb601;
      }

      .cls-4 {
        opacity: .08;
      }

      .cls-5 {
        fill: #ffc500;
      }

      .cls-6 {
        fill: #fff;
      }

      .cls-9 {
        opacity: .26;
      }

      .cls-7 {
        fill: #cd4219;
      }

      .cls-8 {
        opacity: .07;
      }
    </style>
  </defs>
  <ellipse class="cls-5" cx="92.44" cy="41.49" rx="39.83" ry="41.49"/>
  <path class="cls-5" d="M114.84,74.67s57.67,36.33,19.08,74.67c-34.86,34.64-97.25,16.99-113.67,1.66-6.86-6.41-29.87-23.23-15.76-69.7,15.74-51.85,21.57-18.25,31.53-14.11,7.89,3.29,53.1,18.25,78.82,7.47Z"/>
  <path class="cls-4" d="M81.65,39c-14.51-4.7-20.46-12.9-22.82-19.77-3.93,6.43-6.22,14.06-6.22,22.26,0,5.6,1.07,10.94,3.01,15.82,15.84,1.86,51.84-9.96,26.03-18.31Z"/>
  <ellipse class="cls-2" cx="114.6" cy="26.49" rx="3.76" ry="8.21" transform="translate(-2.67 35.66) rotate(-17.49)"/>
  <ellipse class="cls-6" cx="114.15" cy="25.02" rx="2.09" ry="4.56" transform="translate(-2.24 35.45) rotate(-17.49)"/>
  <path class="cls-1" d="M129.31,36.54c3.08-13.01-2.2.39,18.8-4.7,12.32-2.99,12.47,8.69-1.88,17.39-7.15,4.33-11.75,5.17-11.75,5.17,0,0,11.28,11.75,5.17,14.57-6.11,2.82-22.29-.9-23.03-9.4.74-8.76,8.24-4.26,12.69-23.03Z"/>
  <path class="cls-7" d="M133.98,54.48l-6.35,1.11-1.19-3.48s1.28,6.92-2.77,10.28c.85-.34,2.8-1.08,2.81-1.35.88.35,11.2,3.18,13.89,5.5.4.34.74.38,1.04.2.7-4.39-6.93-12.34-6.93-12.34l-.5.09Z"/>
  <path class="cls-3" d="M34.73,95.42c13.71-3.25,16.26,14.45,32.51,4.01,16.26-10.44,48.37-.4,36.73,23.28s-36.33,25.09-36.33,25.09c0,0-6.82.4-18.06-6.22-6.62-.6-17.66-4.01-16.46-18.87-4.21-7.43-10.24-24.49,1.61-27.3Z"/>
  <g class="cls-9">
    <path class="cls-6" d="M43.96,99.55c4.49,6.02,11.4,8.58,18.46,5.47,6.62-2.58,13.19-6.23,20.51-6.25,4.82-.12,9.57.99,14.05,2.7-4.51-1.19-9.33-2.08-14-1.75-4.72.31-9.19,1.8-13.51,3.7-4.42,1.75-8.88,4.27-13.84,3.9-4.92-.36-9.21-3.66-11.67-7.77h0Z"/>
  </g>
  <path class="cls-8" d="M33.13,122.71s7.07,4.09,18.91-.12l4.21,5s-14.47,7.1-22.36,1.84c-1.05-3.68-.76-6.72-.76-6.72Z"/>
  <path class="cls-8" d="M59.4,146.27l9.47-4.21-7.1-3.42c-5.52,2.89-12.18,2.94-12.18,2.94l9.81,4.68Z"/>
</svg>