<?xml version="1.0" encoding="UTF-8"?>
<svg id="Layer_1" data-name="Layer 1" xmlns="http://www.w3.org/2000/svg" viewBox="0 0 538.67 309.33">
  <defs>
    <style>
      .cls-1 {
        fill: none;
        stroke-width: 13.73px;
      }

      .cls-1, .cls-2 {
        stroke: #383635;
        stroke-miterlimit: 10;
      }

      .cls-2 {
        stroke-width: 12px;
      }

      .cls-2, .cls-3 {
        fill: #fff;
      }

      .cls-4 {
        fill: #383635;
      }

      .cls-4, .cls-3 {
        stroke-width: 0px;
      }
    </style>
  </defs>
  <g>
    <path class="cls-3" d="M25.33,6.5h488c10.39,0,18.83,8.44,18.83,18.83v258.67c0,10.39-8.44,18.83-18.83,18.83H25.33c-10.39,0-18.83-8.44-18.83-18.83V25.33C6.5,14.94,14.94,6.5,25.33,6.5Z"/>
    <path class="cls-4" d="M513.33,13c6.8,0,12.33,5.53,12.33,12.33v258.67c0,6.8-5.53,12.33-12.33,12.33H25.33c-6.8,0-12.33-5.53-12.33-12.33V25.33c0-6.8,5.53-12.33,12.33-12.33h488M513.33,0H25.33C11.34,0,0,11.34,0,25.33v258.67c0,13.99,11.34,25.33,25.33,25.33h488c13.99,0,25.33-11.34,25.33-25.33V25.33c0-13.99-11.34-25.33-25.33-25.33h0Z"/>
  </g>
  <polyline class="cls-1" points="524 296 267.17 80 13.33 294.67"/>
  <path class="cls-2" d="M16.5,10.67l239.67,156.81c6.68,4.37,15.31,4.37,21.99,0L517.83,10.67"/>
</svg>