<?xml version="1.0" encoding="UTF-8"?>
<svg id="Layer_1" data-name="Layer 1" xmlns="http://www.w3.org/2000/svg" viewBox="0 0 252.59 272.17">
  <defs>
    <style>
      .cls-1 {
        fill: #fe621e;
      }

      .cls-1, .cls-2, .cls-3, .cls-4, .cls-5, .cls-6, .cls-7, .cls-8 {
        stroke-width: 0px;
      }

      .cls-3 {
        fill: #ffb601;
      }

      .cls-4 {
        opacity: .08;
      }

      .cls-5 {
        fill: #ffc500;
      }

      .cls-6 {
        fill: #fff;
      }

      .cls-9 {
        opacity: .26;
      }

      .cls-7 {
        fill: #cd4219;
      }

      .cls-8 {
        opacity: .07;
      }
    </style>
  </defs>
  <ellipse class="cls-5" cx="148.55" cy="66.67" rx="64" ry="66.67"/>
  <path class="cls-5" d="M184.55,120s92.68,58.38,30.67,120c-56.02,55.66-156.28,27.3-182.67,2.67-11.03-10.29-48-37.33-25.33-112,25.29-83.32,34.67-29.33,50.67-22.67,12.67,5.28,85.33,29.33,126.67,12Z"/>
  <path class="cls-4" d="M131.22,62.67c-23.32-7.54-32.88-20.74-36.66-31.77-6.32,10.34-10,22.6-10,35.77,0,9,1.72,17.59,4.83,25.42,25.46,2.99,83.31-16,41.84-29.42Z"/>
  <ellipse class="cls-2" cx="184.15" cy="42.57" rx="6.05" ry="13.19" transform="translate(-4.28 57.3) rotate(-17.49)"/>
  <ellipse class="cls-6" cx="183.44" cy="40.2" rx="3.36" ry="7.32" transform="translate(-3.6 56.98) rotate(-17.49)"/>
  <path class="cls-1" d="M207.8,58.71c4.95-20.9-3.53.62,30.21-7.55,19.8-4.8,20.04,13.97-3.02,27.94-11.49,6.96-18.88,8.31-18.88,8.31,0,0,18.13,18.88,8.31,23.41s-35.82-1.45-37.01-15.11c1.18-14.08,13.24-6.84,20.39-37.01Z"/>
  <path class="cls-7" d="M215.3,87.55l-10.2,1.78-1.92-5.59s2.06,11.11-4.45,16.51c1.36-.54,4.49-1.73,4.52-2.17,1.42.56,18,5.11,22.31,8.83.64.55,1.19.61,1.67.32,1.13-7.05-11.14-19.84-11.14-19.84l-.8.14Z"/>
  <path class="cls-3" d="M55.82,153.33c22.03-5.23,26.13,23.22,52.25,6.45s77.73-.65,59.02,37.41-58.38,40.32-58.38,40.32c0,0-10.97.65-29.03-10-10.64-.97-28.38-6.45-26.45-30.32-6.77-11.93-16.45-39.35,2.58-43.87Z"/>
  <g class="cls-9">
    <path class="cls-6" d="M70.65,159.97c2.3,3.05,5.12,5.7,8.34,7.63,3.18,2,6.82,3.18,10.5,3.31,3.7.15,7.28-.79,10.82-2.16,3.54-1.32,7.01-2.89,10.54-4.41,3.54-1.49,7.15-2.9,10.89-3.95,3.76-.99,7.64-1.59,11.52-1.71h2.91c.97,0,1.93.15,2.9.22,1.94.12,3.83.51,5.73.84.95.14,1.88.44,2.81.67l2.79.74c1.83.58,3.64,1.24,5.44,1.88-7.37-2.06-14.98-3.21-22.5-2.8-3.75.3-7.47.91-11.08,1.97-3.61,1.07-7.13,2.46-10.63,3.97-3.52,1.47-7.02,3.05-10.67,4.34-3.6,1.28-7.6,2.3-11.56,1.94-1.98-.13-3.92-.61-5.77-1.27-.91-.38-1.81-.78-2.68-1.23-.84-.51-1.72-.94-2.49-1.55-1.61-1.1-3.02-2.45-4.35-3.84-1.32-1.4-2.49-2.95-3.46-4.6Z"/>
  </g>
  <path class="cls-8" d="M53.24,197.2s11.36,6.57,30.38-.19l6.76,8.03s-23.25,11.41-35.93,2.96c-1.69-5.92-1.22-10.8-1.22-10.8Z"/>
  <path class="cls-8" d="M95.45,235.05l15.22-6.76-11.41-5.49c-8.88,4.65-19.57,4.73-19.57,4.73l15.77,7.53Z"/>
</svg>